<svg xmlns="http://www.w3.org/2000/svg" viewBox="0 0 128 128">
  <defs>
    <linearGradient id="blueGrad" x1="0%" y1="0%" x2="0%" y2="100%">
      <stop offset="0%" style="stop-color:#4a90e2;stop-opacity:1" />
      <stop offset="100%" style="stop-color:#2563eb;stop-opacity:1" />
    </linearGradient>
  </defs>
  
  <!-- Erlenmeyer flask shape inside magnifying glass -->
  <circle cx="50" cy="50" r="35" fill="none" stroke="url(#blueGrad)" stroke-width="6"/>
  
  <!-- Flask/beaker shape -->
  <path d="M 40 35 L 40 45 L 35 60 Q 32 65 35 68 L 45 68 Q 48 65 45 60 L 40 45 Z" 
        fill="#4a90e2" opacity="0.3"/>
  <path d="M 45 35 L 45 45 L 50 60 Q 53 65 50 68 L 60 68 Q 63 65 60 60 L 55 45 Z" 
        fill="#2563eb" opacity="0.3"/>
  
  <!-- Handle -->
  <path d="M 75 75 L 100 100 Q 105 105 110 100 Q 115 95 110 90 L 85 65" 
        fill="none" stroke="url(#blueGrad)" stroke-width="8" stroke-linecap="round"/>
  
  <!-- Highlight on glass -->
  <path d="M 35 40 Q 40 35 45 40" fill="none" stroke="#fff" stroke-width="2" opacity="0.5"/>
</svg>
